<svg width="21" height="21" viewBox="0 0 21 21" fill="none" xmlns="http://www.w3.org/2000/svg">
<path d="M19.3889 10.5C19.0926 10.5 18.8289 10.3933 18.5978 10.18C18.3659 9.96741 18.2315 9.7037 18.1944 9.38889C17.9537 7.66667 17.227 6.19889 16.0144 4.98556C14.8011 3.77296 13.3333 3.0463 11.6111 2.80556C11.2963 2.76852 11.0326 2.63889 10.82 2.41667C10.6067 2.19444 10.5 1.92593 10.5 1.61111C10.5 1.2963 10.6111 1.03222 10.8333 0.818889C11.0556 0.606296 11.3148 0.518518 11.6111 0.555556C13.9444 0.814815 15.9352 1.76852 17.5833 3.41667C19.2315 5.06482 20.1852 7.05556 20.4444 9.38889C20.4815 9.68519 20.3933 9.94444 20.18 10.1667C19.9674 10.3889 19.7037 10.5 19.3889 10.5ZM14.75 10.5C14.5093 10.5 14.2963 10.4167 14.1111 10.25C13.9259 10.0833 13.787 9.86111 13.6944 9.58333C13.5463 9.0463 13.2641 8.56926 12.8478 8.15222C12.4307 7.73593 11.9537 7.4537 11.4167 7.30556C11.1389 7.21296 10.9167 7.07407 10.75 6.88889C10.5833 6.7037 10.5 6.48148 10.5 6.22222C10.5 5.85185 10.6296 5.55074 10.8889 5.31889C11.1481 5.08778 11.4352 5.00926 11.75 5.08333C12.787 5.32407 13.6807 5.81926 14.4311 6.56889C15.1807 7.31926 15.6759 8.21296 15.9167 9.25C15.9907 9.56481 15.9074 9.85185 15.6667 10.1111C15.4259 10.3704 15.1204 10.5 14.75 10.5ZM19.3333 20.5C16.9444 20.5 14.6159 19.9674 12.3478 18.9022C10.0789 17.8378 8.06963 16.4304 6.32 14.68C4.56963 12.9304 3.16222 10.9211 2.09778 8.65222C1.03259 6.38407 0.5 4.05556 0.5 1.66667C0.5 1.33333 0.611111 1.05556 0.833333 0.833333C1.05556 0.611111 1.33333 0.5 1.66667 0.5H6.16667C6.42593 0.5 6.65741 0.583333 6.86111 0.75C7.06482 0.916667 7.18519 1.12963 7.22222 1.38889L7.94444 5.27778C7.98148 5.53704 7.97704 5.77296 7.93111 5.98556C7.88444 6.19889 7.77778 6.38889 7.61111 6.55556L4.94444 9.27778C5.72222 10.6111 6.69445 11.8611 7.86111 13.0278C9.02778 14.1944 10.3148 15.2037 11.7222 16.0556L14.3333 13.4444C14.5 13.2778 14.7178 13.1526 14.9867 13.0689C15.2548 12.9859 15.5185 12.963 15.7778 13L19.6111 13.7778C19.8704 13.8333 20.0833 13.9581 20.25 14.1522C20.4167 14.347 20.5 14.5741 20.5 14.8333V19.3333C20.5 19.6667 20.3889 19.9444 20.1667 20.1667C19.9444 20.3889 19.6667 20.5 19.3333 20.5ZM3.88889 7.16667L5.72222 5.33333L5.22222 2.72222H2.77778C2.87037 3.48148 3 4.23148 3.16667 4.97222C3.33333 5.71296 3.57407 6.44444 3.88889 7.16667ZM18.2778 18.2222V15.7778L15.6667 15.2222L13.8333 17.0556C14.5556 17.3704 15.287 17.6296 16.0278 17.8333C16.7685 18.037 17.5185 18.1667 18.2778 18.2222Z" fill="white"/>
</svg>
