<svg width="20" height="25" viewBox="0 0 20 25" fill="none" xmlns="http://www.w3.org/2000/svg">
<path d="M10 12.5C10.6875 12.5 11.2762 12.2648 11.7663 11.7944C12.2554 11.3248 12.5 10.76 12.5 10.1C12.5 9.44 12.2554 8.8748 11.7663 8.4044C11.2762 7.9348 10.6875 7.7 10 7.7C9.3125 7.7 8.72417 7.9348 8.235 8.4044C7.745 8.8748 7.5 9.44 7.5 10.1C7.5 10.76 7.745 11.3248 8.235 11.7944C8.72417 12.2648 9.3125 12.5 10 12.5ZM10 21.32C12.5417 19.08 14.4271 17.0448 15.6562 15.2144C16.8854 13.3848 17.5 11.76 17.5 10.34C17.5 8.16 16.7758 6.3748 15.3275 4.9844C13.88 3.5948 12.1042 2.9 10 2.9C7.89583 2.9 6.11958 3.5948 4.67125 4.9844C3.22375 6.3748 2.5 8.16 2.5 10.34C2.5 11.76 3.11458 13.3848 4.34375 15.2144C5.57292 17.0448 7.45833 19.08 10 21.32ZM10 24.5C6.64583 21.76 4.14083 19.2148 2.485 16.8644C0.828333 14.5148 0 12.34 0 10.34C0 7.34 1.00542 4.95 3.01625 3.17C5.02625 1.39 7.35417 0.5 10 0.5C12.6458 0.5 14.9738 1.39 16.9837 3.17C18.9946 4.95 20 7.34 20 10.34C20 12.34 19.1721 14.5148 17.5163 16.8644C15.8596 19.2148 13.3542 21.76 10 24.5Z" fill="white"/>
</svg>
